<svg width="60" height="60" viewBox="0 0 60 60" fill="none" xmlns="http://www.w3.org/2000/svg">
<g filter="url(#filter0_i_90_922)">
<rect width="60" height="60" rx="30" fill="#FFF9E6"/>
<rect x="0.625" y="0.625" width="58.75" height="58.75" rx="29.375" stroke="#CDA72C" stroke-opacity="0.1" stroke-width="1.25"/>
<path d="M40.5 23.325C40.5 22 39.975 20.725 39.0375 19.7875L34.4625 15.2125C33.525 14.275 32.25 13.75 30.925 13.75H21.75C18.9875 13.75 16.75 15.9875 16.75 18.75V40C16.75 42.7625 18.9875 45 21.75 45H35.5C38.2625 45 40.5 42.7625 40.5 40V23.325Z" fill="#EBF4FF"/>
<path d="M35.5 45.625H21.75C18.65 45.625 16.125 43.1 16.125 40V18.75C16.125 15.65 18.65 13.125 21.75 13.125H30.925C32.425 13.125 33.8375 13.7125 34.9 14.775L39.475 19.35C40.5375 20.4125 41.125 21.825 41.125 23.325V40C41.125 43.1 38.6 45.625 35.5 45.625ZM21.75 14.375C19.3375 14.375 17.375 16.3375 17.375 18.75V40C17.375 42.4125 19.3375 44.375 21.75 44.375H35.5C37.9125 44.375 39.875 42.4125 39.875 40V23.325C39.875 22.1625 39.425 21.0625 38.6 20.2375L34.025 15.6625C33.2 14.8375 32.1 14.3875 30.9375 14.3875H21.7625L21.75 14.375Z" fill="#EBF4FF"/>
<path d="M40.05 21.25H34.25C33.5625 21.25 33 20.6875 33 20V14.2C34.2 15.125 35.525 16.2625 36.8625 17.6125C38.1125 18.875 39.1625 20.1125 40.0375 21.25H40.05Z" fill="#CBE2FF"/>
<path d="M40.05 21.875H34.25C33.2125 21.875 32.375 21.0375 32.375 20V14.2C32.375 13.9625 32.5125 13.75 32.725 13.6375C32.9375 13.5375 33.1875 13.5625 33.3875 13.7C34.7625 14.7625 36.0875 15.9375 37.3125 17.175C38.4625 18.3375 39.55 19.575 40.55 20.8625C40.7 21.05 40.725 21.3 40.6125 21.525C40.5125 21.7375 40.2875 21.875 40.05 21.875ZM33.625 15.5V20C33.625 20.35 33.9 20.625 34.25 20.625H38.75C38.0125 19.7375 37.2375 18.875 36.425 18.0625C35.5375 17.175 34.6 16.3125 33.625 15.5Z" fill="#CBE2FF"/>
<path d="M26.75 20.625H20.5C20.15 20.625 19.875 20.35 19.875 20C19.875 19.65 20.15 19.375 20.5 19.375H26.75C27.1 19.375 27.375 19.65 27.375 20C27.375 20.35 27.1 20.625 26.75 20.625Z" fill="#80B4FB"/>
<path d="M30.5 24.375H20.5C20.15 24.375 19.875 24.1 19.875 23.75C19.875 23.4 20.15 23.125 20.5 23.125H30.5C30.85 23.125 31.125 23.4 31.125 23.75C31.125 24.1 30.85 24.375 30.5 24.375Z" fill="#80B4FB"/>
<path d="M25.5 28.125H20.5C20.15 28.125 19.875 27.85 19.875 27.5C19.875 27.15 20.15 26.875 20.5 26.875H25.5C25.85 26.875 26.125 27.15 26.125 27.5C26.125 27.85 25.85 28.125 25.5 28.125Z" fill="#80B4FB"/>
<path d="M25.5 31.875H20.5C20.15 31.875 19.875 31.6 19.875 31.25C19.875 30.9 20.15 30.625 20.5 30.625H25.5C25.85 30.625 26.125 30.9 26.125 31.25C26.125 31.6 25.85 31.875 25.5 31.875Z" fill="#80B4FB"/>
<path d="M25.5 35.625H20.5C20.15 35.625 19.875 35.35 19.875 35C19.875 34.65 20.15 34.375 20.5 34.375H25.5C25.85 34.375 26.125 34.65 26.125 35C26.125 35.35 25.85 35.625 25.5 35.625Z" fill="#80B4FB"/>
<path d="M25.5 39.375H20.5C20.15 39.375 19.875 39.1 19.875 38.75C19.875 38.4 20.15 38.125 20.5 38.125H25.5C25.85 38.125 26.125 38.4 26.125 38.75C26.125 39.1 25.85 39.375 25.5 39.375Z" fill="#80B4FB"/>
<path d="M31 38V49L37 45.8571L43 49V38H31Z" fill="#FF9BA1"/>
<path d="M45 34C45 38.4 41.4 42 37 42C32.6 42 29 38.4 29 34C29 29.6 32.6 26 37 26C41.4 26 45 29.6 45 34Z" fill="#FFE07D"/>
</g>
<defs>
<filter id="filter0_i_90_922" x="0" y="0" width="60" height="62.5" filterUnits="userSpaceOnUse" color-interpolation-filters="sRGB">
<feFlood flood-opacity="0" result="BackgroundImageFix"/>
<feBlend mode="normal" in="SourceGraphic" in2="BackgroundImageFix" result="shape"/>
<feColorMatrix in="SourceAlpha" type="matrix" values="0 0 0 0 0 0 0 0 0 0 0 0 0 0 0 0 0 0 127 0" result="hardAlpha"/>
<feOffset dy="2.5"/>
<feGaussianBlur stdDeviation="1.25"/>
<feComposite in2="hardAlpha" operator="arithmetic" k2="-1" k3="1"/>
<feColorMatrix type="matrix" values="0 0 0 0 0 0 0 0 0 0 0 0 0 0 0 0 0 0 0.08 0"/>
<feBlend mode="normal" in2="shape" result="effect1_innerShadow_90_922"/>
</filter>
</defs>
</svg>
