<svg width="60" height="60" viewBox="0 0 60 60" fill="none" xmlns="http://www.w3.org/2000/svg">
<g filter="url(#filter0_i_90_870)">
<rect width="60" height="60" rx="30" fill="#FFF9E6"/>
<rect x="0.625" y="0.625" width="58.75" height="58.75" rx="29.375" stroke="#CDA72C" stroke-opacity="0.1" stroke-width="1.25"/>
<path d="M38.75 23.325C38.75 22 38.225 20.725 37.2875 19.7875L32.7125 15.2125C31.775 14.275 30.5 13.75 29.175 13.75H20C17.2375 13.75 15 15.9875 15 18.75V41.925C15 44.6875 17.2375 46.925 20 46.925H33.75C36.5125 46.925 38.75 44.6875 38.75 41.925V23.325Z" fill="#EBF4FF"/>
<path d="M33.75 47.55H20C16.9 47.55 14.375 45.025 14.375 41.925V18.75C14.375 15.65 16.9 13.125 20 13.125H29.175C30.65 13.125 32.1 13.725 33.15 14.775L37.725 19.35C38.775 20.4 39.375 21.85 39.375 23.325V41.925C39.375 45.025 36.85 47.55 33.75 47.55ZM20 14.375C17.5875 14.375 15.625 16.3375 15.625 18.75V41.925C15.625 44.3375 17.5875 46.3 20 46.3H33.75C36.1625 46.3 38.125 44.3375 38.125 41.925V23.325C38.125 22.175 37.6625 21.05 36.8375 20.2375L32.2625 15.6625C31.45 14.85 30.325 14.3875 29.1625 14.3875H19.9875L20 14.375Z" fill="#EBF4FF"/>
<path d="M25 21.875H18.75C18.4 21.875 18.125 21.6 18.125 21.25C18.125 20.9 18.4 20.625 18.75 20.625H25C25.35 20.625 25.625 20.9 25.625 21.25C25.625 21.6 25.35 21.875 25 21.875Z" fill="#80B4FB"/>
<path d="M28.75 25.625H18.75C18.4 25.625 18.125 25.35 18.125 25C18.125 24.65 18.4 24.375 18.75 24.375H28.75C29.1 24.375 29.375 24.65 29.375 25C29.375 25.35 29.1 25.625 28.75 25.625Z" fill="#80B4FB"/>
<path d="M32.5 29.375H23.75C23.4 29.375 23.125 29.1 23.125 28.75C23.125 28.4 23.4 28.125 23.75 28.125H32.5C32.85 28.125 33.125 28.4 33.125 28.75C33.125 29.1 32.85 29.375 32.5 29.375Z" fill="#80B4FB"/>
<path d="M21.25 29.375H18.75C18.4 29.375 18.125 29.1 18.125 28.75C18.125 28.4 18.4 28.125 18.75 28.125H21.25C21.6 28.125 21.875 28.4 21.875 28.75C21.875 29.1 21.6 29.375 21.25 29.375Z" fill="#80B4FB"/>
<path d="M32.5 33.125H27.5C27.15 33.125 26.875 32.85 26.875 32.5C26.875 32.15 27.15 31.875 27.5 31.875H32.5C32.85 31.875 33.125 32.15 33.125 32.5C33.125 32.85 32.85 33.125 32.5 33.125Z" fill="#80B4FB"/>
<path d="M25 33.125H18.75C18.4 33.125 18.125 32.85 18.125 32.5C18.125 32.15 18.4 31.875 18.75 31.875H25C25.35 31.875 25.625 32.15 25.625 32.5C25.625 32.85 25.35 33.125 25 33.125Z" fill="#80B4FB"/>
<path d="M32.5 36.875H18.75C18.4 36.875 18.125 36.6 18.125 36.25C18.125 35.9 18.4 35.625 18.75 35.625H32.5C32.85 35.625 33.125 35.9 33.125 36.25C33.125 36.6 32.85 36.875 32.5 36.875Z" fill="#80B4FB"/>
<path d="M28.75 40.625H23.75C23.4 40.625 23.125 40.35 23.125 40C23.125 39.65 23.4 39.375 23.75 39.375H28.75C29.1 39.375 29.375 39.65 29.375 40C29.375 40.35 29.1 40.625 28.75 40.625Z" fill="#80B4FB"/>
<path d="M21.25 40.625H18.75C18.4 40.625 18.125 40.35 18.125 40C18.125 39.65 18.4 39.375 18.75 39.375H21.25C21.6 39.375 21.875 39.65 21.875 40C21.875 40.35 21.6 40.625 21.25 40.625Z" fill="#80B4FB"/>
<path d="M39.375 27.5C37.15 27.5 35.525 29.5875 36.0625 31.75L37.5 37.5H41.25L42.6875 31.75C43.225 29.6 41.6 27.5 39.375 27.5Z" fill="#BC7B63"/>
<path d="M41.25 38.125H37.5C37.2125 38.125 36.9625 37.925 36.8875 37.65L35.45 31.9C35.15 30.6875 35.4125 29.425 36.1875 28.4375C36.9625 27.45 38.125 26.8875 39.375 26.8875C40.625 26.8875 41.7875 27.45 42.5625 28.4375C43.3375 29.425 43.6 30.6875 43.3 31.9L41.8625 37.65C41.7875 37.925 41.5375 38.125 41.25 38.125ZM37.9875 36.875H40.7625L42.0875 31.5875C42.3 30.75 42.1125 29.875 41.575 29.1875C40.5125 27.825 38.2375 27.825 37.175 29.1875C36.6375 29.875 36.4625 30.7375 36.6625 31.5875L37.9875 36.875Z" fill="#BC7B63"/>
<path d="M37.5 37.5H41.25C41.9375 37.5 42.5 38.0625 42.5 38.75V40H36.25V38.75C36.25 38.0625 36.8125 37.5 37.5 37.5Z" fill="#935B43"/>
<path d="M42.5 40.625H36.25C35.9 40.625 35.625 40.35 35.625 40V38.75C35.625 37.7125 36.4625 36.875 37.5 36.875H41.25C42.2875 36.875 43.125 37.7125 43.125 38.75V40C43.125 40.35 42.85 40.625 42.5 40.625ZM36.875 39.375H41.875V38.75C41.875 38.4 41.6 38.125 41.25 38.125H37.5C37.15 38.125 36.875 38.4 36.875 38.75V39.375Z" fill="#935B43"/>
<path d="M35 40H43.75C45.125 40 46.25 41.125 46.25 42.5C46.25 43.1875 45.6875 43.75 45 43.75H33.75C33.0625 43.75 32.5 43.1875 32.5 42.5C32.5 41.125 33.625 40 35 40Z" fill="#FFC251"/>
<path d="M45 44.375H33.75C32.7125 44.375 31.875 43.5375 31.875 42.5C31.875 40.775 33.275 39.375 35 39.375H43.75C45.475 39.375 46.875 40.775 46.875 42.5C46.875 43.5375 46.0375 44.375 45 44.375ZM35 40.625C33.9625 40.625 33.125 41.4625 33.125 42.5C33.125 42.85 33.4 43.125 33.75 43.125H45C45.35 43.125 45.625 42.85 45.625 42.5C45.625 41.4625 44.7875 40.625 43.75 40.625H35Z" fill="#FFC251"/>
<path d="M38.3 21.25H32.5C31.8125 21.25 31.25 20.6875 31.25 20V14.2C32.45 15.125 33.775 16.2625 35.1125 17.6125C36.3625 18.875 37.4125 20.1125 38.2875 21.25H38.3Z" fill="#CBE2FF"/>
<path d="M38.3 21.875H32.5C31.4625 21.875 30.625 21.0375 30.625 20V14.2C30.625 13.9625 30.7625 13.75 30.975 13.6375C31.1875 13.5375 31.4375 13.5625 31.6375 13.7C33.0125 14.7625 34.3375 15.925 35.5625 17.175C36.7125 18.325 37.8 19.575 38.7875 20.8625C38.9375 21.05 38.9625 21.3 38.85 21.525C38.75 21.7375 38.525 21.875 38.2875 21.875H38.3ZM31.875 15.5V20C31.875 20.35 32.15 20.625 32.5 20.625H37C36.2625 19.7375 35.4875 18.875 34.675 18.0625C33.7875 17.1625 32.85 16.3125 31.875 15.5Z" fill="#CBE2FF"/>
</g>
<defs>
<filter id="filter0_i_90_870" x="0" y="0" width="60" height="62.5" filterUnits="userSpaceOnUse" color-interpolation-filters="sRGB">
<feFlood flood-opacity="0" result="BackgroundImageFix"/>
<feBlend mode="normal" in="SourceGraphic" in2="BackgroundImageFix" result="shape"/>
<feColorMatrix in="SourceAlpha" type="matrix" values="0 0 0 0 0 0 0 0 0 0 0 0 0 0 0 0 0 0 127 0" result="hardAlpha"/>
<feOffset dy="2.5"/>
<feGaussianBlur stdDeviation="1.25"/>
<feComposite in2="hardAlpha" operator="arithmetic" k2="-1" k3="1"/>
<feColorMatrix type="matrix" values="0 0 0 0 0 0 0 0 0 0 0 0 0 0 0 0 0 0 0.08 0"/>
<feBlend mode="normal" in2="shape" result="effect1_innerShadow_90_870"/>
</filter>
</defs>
</svg>
