<svg width="60" height="60" viewBox="0 0 60 60" fill="none" xmlns="http://www.w3.org/2000/svg">
<g filter="url(#filter0_i_90_899)">
<rect width="60" height="60" rx="30" fill="#FFF9E6"/>
<rect x="0.625" y="0.625" width="58.75" height="58.75" rx="29.375" stroke="#CDA72C" stroke-opacity="0.1" stroke-width="1.25"/>
<path d="M37.5 23.325C37.5 22 36.975 20.725 36.0375 19.7875L31.4625 15.2125C30.525 14.275 29.25 13.75 27.925 13.75H18.75C15.9875 13.75 13.75 15.9875 13.75 18.75V40C13.75 42.7625 15.9875 45 18.75 45H32.5C35.2625 45 37.5 42.7625 37.5 40V23.325Z" fill="#EBF4FF"/>
<path d="M32.5 45.625H18.75C15.65 45.625 13.125 43.1 13.125 40V18.75C13.125 15.65 15.65 13.125 18.75 13.125H27.925C29.425 13.125 30.8375 13.7125 31.9 14.775L36.475 19.35C37.5375 20.4125 38.125 21.825 38.125 23.325V40C38.125 43.1 35.6 45.625 32.5 45.625ZM18.75 14.375C16.3375 14.375 14.375 16.3375 14.375 18.75V40C14.375 42.4125 16.3375 44.375 18.75 44.375H32.5C34.9125 44.375 36.875 42.4125 36.875 40V23.325C36.875 22.1625 36.425 21.0625 35.6 20.2375L31.025 15.6625C30.2 14.8375 29.1 14.3875 27.9375 14.3875H18.7625L18.75 14.375Z" fill="#EBF4FF"/>
<path d="M42.5 27.5H30C27.9289 27.5 26.25 29.1789 26.25 31.25V37.5C26.25 39.5711 27.9289 41.25 30 41.25H42.5C44.5711 41.25 46.25 39.5711 46.25 37.5V31.25C46.25 29.1789 44.5711 27.5 42.5 27.5Z" fill="#FFE07D"/>
<path d="M42.5 41.875H30C27.5875 41.875 25.625 39.9125 25.625 37.5V31.25C25.625 28.8375 27.5875 26.875 30 26.875H42.5C44.9125 26.875 46.875 28.8375 46.875 31.25V37.5C46.875 39.9125 44.9125 41.875 42.5 41.875ZM30 28.125C28.275 28.125 26.875 29.525 26.875 31.25V37.5C26.875 39.225 28.275 40.625 30 40.625H42.5C44.225 40.625 45.625 39.225 45.625 37.5V31.25C45.625 29.525 44.225 28.125 42.5 28.125H30Z" fill="#FFE07D"/>
<path d="M37.05 21.25H31.25C30.5625 21.25 30 20.6875 30 20V14.2C31.2 15.125 32.525 16.2625 33.8625 17.6125C35.1125 18.875 36.1625 20.1125 37.0375 21.25H37.05Z" fill="#CBE2FF"/>
<path d="M37.05 21.875H31.25C30.2125 21.875 29.375 21.0375 29.375 20V14.2C29.375 13.9625 29.5125 13.75 29.725 13.6375C29.9375 13.5375 30.1875 13.5625 30.3875 13.7C31.7625 14.7625 33.0875 15.9375 34.3125 17.175C35.4625 18.3375 36.55 19.575 37.55 20.8625C37.7 21.05 37.725 21.3 37.6125 21.525C37.5125 21.7375 37.2875 21.875 37.05 21.875ZM30.625 15.5V20C30.625 20.35 30.9 20.625 31.25 20.625H35.75C35.0125 19.7375 34.2375 18.875 33.425 18.0625C32.5375 17.175 31.6 16.3125 30.625 15.5Z" fill="#CBE2FF"/>
<path d="M23.75 20.625H17.5C17.15 20.625 16.875 20.35 16.875 20C16.875 19.65 17.15 19.375 17.5 19.375H23.75C24.1 19.375 24.375 19.65 24.375 20C24.375 20.35 24.1 20.625 23.75 20.625Z" fill="#80B4FB"/>
<path d="M27.5 24.375H17.5C17.15 24.375 16.875 24.1 16.875 23.75C16.875 23.4 17.15 23.125 17.5 23.125H27.5C27.85 23.125 28.125 23.4 28.125 23.75C28.125 24.1 27.85 24.375 27.5 24.375Z" fill="#80B4FB"/>
<path d="M22.5 28.125H17.5C17.15 28.125 16.875 27.85 16.875 27.5C16.875 27.15 17.15 26.875 17.5 26.875H22.5C22.85 26.875 23.125 27.15 23.125 27.5C23.125 27.85 22.85 28.125 22.5 28.125Z" fill="#80B4FB"/>
<path d="M22.5 31.875H17.5C17.15 31.875 16.875 31.6 16.875 31.25C16.875 30.9 17.15 30.625 17.5 30.625H22.5C22.85 30.625 23.125 30.9 23.125 31.25C23.125 31.6 22.85 31.875 22.5 31.875Z" fill="#80B4FB"/>
<path d="M22.5 35.625H17.5C17.15 35.625 16.875 35.35 16.875 35C16.875 34.65 17.15 34.375 17.5 34.375H22.5C22.85 34.375 23.125 34.65 23.125 35C23.125 35.35 22.85 35.625 22.5 35.625Z" fill="#80B4FB"/>
<path d="M22.5 39.375H17.5C17.15 39.375 16.875 39.1 16.875 38.75C16.875 38.4 17.15 38.125 17.5 38.125H22.5C22.85 38.125 23.125 38.4 23.125 38.75C23.125 39.1 22.85 39.375 22.5 39.375Z" fill="#80B4FB"/>
</g>
<defs>
<filter id="filter0_i_90_899" x="0" y="0" width="60" height="62.5" filterUnits="userSpaceOnUse" color-interpolation-filters="sRGB">
<feFlood flood-opacity="0" result="BackgroundImageFix"/>
<feBlend mode="normal" in="SourceGraphic" in2="BackgroundImageFix" result="shape"/>
<feColorMatrix in="SourceAlpha" type="matrix" values="0 0 0 0 0 0 0 0 0 0 0 0 0 0 0 0 0 0 127 0" result="hardAlpha"/>
<feOffset dy="2.5"/>
<feGaussianBlur stdDeviation="1.25"/>
<feComposite in2="hardAlpha" operator="arithmetic" k2="-1" k3="1"/>
<feColorMatrix type="matrix" values="0 0 0 0 0 0 0 0 0 0 0 0 0 0 0 0 0 0 0.08 0"/>
<feBlend mode="normal" in2="shape" result="effect1_innerShadow_90_899"/>
</filter>
</defs>
</svg>
