<svg width="60" height="60" viewBox="0 0 60 60" fill="none" xmlns="http://www.w3.org/2000/svg">
<g filter="url(#filter0_i_90_942)">
<rect width="60" height="60" rx="30" fill="#FFF9E6"/>
<rect x="0.625" y="0.625" width="58.75" height="58.75" rx="29.375" stroke="#CDA72C" stroke-opacity="0.1" stroke-width="1.25"/>
<path d="M32.5 13.75H17.5C15.4289 13.75 13.75 15.4289 13.75 17.5V40C13.75 42.0711 15.4289 43.75 17.5 43.75H32.5C34.5711 43.75 36.25 42.0711 36.25 40V17.5C36.25 15.4289 34.5711 13.75 32.5 13.75Z" fill="#EBF4FF"/>
<path d="M32.5 44.375H17.5C15.0875 44.375 13.125 42.4125 13.125 40V17.5C13.125 15.0875 15.0875 13.125 17.5 13.125H32.5C34.9125 13.125 36.875 15.0875 36.875 17.5V40C36.875 42.4125 34.9125 44.375 32.5 44.375ZM17.5 14.375C15.775 14.375 14.375 15.775 14.375 17.5V40C14.375 41.725 15.775 43.125 17.5 43.125H32.5C34.225 43.125 35.625 41.725 35.625 40V17.5C35.625 15.775 34.225 14.375 32.5 14.375H17.5Z" fill="#EBF4FF"/>
<path d="M17.5 40.625C17.5 40.625 17.425 40.625 17.3875 40.625C17.05 40.5625 16.825 40.2375 16.8875 39.9C17.0875 38.8 17.575 37.825 18.3 37.075C19.2625 36.0875 20.6875 35.375 21.8125 35.4C22.425 35.4 22.7625 35.6375 22.95 35.8375C23.575 36.5125 23.3875 37.8 22.4375 39.375H27.4875C27.8375 39.3875 28.1125 39.675 28.1125 40.0125C28.1125 40.35 27.8375 40.6375 27.4875 40.6375H22.425C21.975 40.6375 21.5625 40.4 21.3375 40.0125C21.1125 39.6125 21.125 39.125 21.3625 38.725C22.1 37.5 22.1 36.8 22.025 36.6875C21.775 36.5 20.2375 36.875 19.1875 37.95C18.4875 38.6625 18.2125 39.525 18.1 40.125C18.05 40.425 17.7875 40.6375 17.4875 40.6375L17.5 40.625Z" fill="#80B4FB"/>
<path d="M46.25 28.275L42.175 31.7375C39.9 33.675 38.4875 36.425 38.25 39.4C38.225 39.7625 37.9125 40.0375 37.55 40.0375L27.475 40C27.05 40 26.725 39.6125 26.7875 39.2L28.3625 29.25C28.425 28.8875 28.7375 28.6375 29.1 28.6625C32.075 28.9 35.025 27.95 37.3 26.025L46.2375 18.425V28.275H46.25Z" fill="#665E68"/>
<path d="M37.55 40.675L27.475 40.6375C27.0875 40.6375 26.725 40.4625 26.475 40.175C26.225 39.875 26.1125 39.5 26.175 39.1125L27.75 29.1625C27.8625 28.4875 28.4625 28 29.1625 28.05C32 28.2875 34.7375 27.3875 36.9 25.55L45.8375 17.95C46.025 17.7875 46.2875 17.75 46.5 17.8625C46.725 17.9625 46.8625 18.1875 46.8625 18.425V28.275C46.8625 28.4625 46.7875 28.6375 46.6375 28.75L42.5625 32.2125C40.4 34.05 39.0875 36.625 38.85 39.45C38.8 40.125 38.2125 40.6625 37.5375 40.6625L37.55 40.675ZM29.075 29.3L27.425 39.3L37.5625 39.425C37.8875 36.2 39.3625 33.325 41.775 31.275L45.625 28V19.8L37.725 26.525C35.3125 28.575 32.2375 29.575 29.075 29.3125V29.3Z" fill="#665E68"/>
<path d="M41.5125 32.3625C39.625 34.2375 38.475 36.7375 38.25 39.4125C38.225 39.775 37.9125 40.05 37.55 40.05L27.475 40.0125C27.05 40.0125 26.725 39.625 26.7875 39.2125L28.3625 29.2625C28.425 28.9 28.7375 28.65 29.1 28.675C31.7 28.8875 34.2875 28.1875 36.4125 26.7125" fill="#E1E0E2"/>
<path d="M37.55 40.675L27.475 40.6375C27.0875 40.6375 26.725 40.4625 26.475 40.175C26.225 39.875 26.1125 39.5 26.175 39.1125L27.75 29.1625C27.8625 28.4875 28.4625 28 29.1625 28.05C31.6125 28.25 34.05 27.5875 36.075 26.2C36.35 26 36.75 26.075 36.95 26.3625C37.15 26.65 37.075 27.0375 36.7875 27.2375C34.5375 28.8 31.7875 29.525 29.075 29.3125L27.425 39.3125L37.5625 39.4375C37.8625 36.5625 39.075 33.925 41.075 31.9375C41.325 31.6875 41.7125 31.6875 41.9625 31.9375C42.2125 32.1875 42.2125 32.575 41.9625 32.825C40.1875 34.6 39.0875 36.975 38.8875 39.4875C38.8375 40.1625 38.25 40.7 37.575 40.7L37.55 40.675Z" fill="#E1E0E2"/>
<path d="M41.475 32.9625C41.3 32.9625 41.125 32.8875 41 32.7375L36.1375 27.025C35.9125 26.7625 35.95 26.3625 36.2125 26.15C36.475 25.925 36.875 25.9625 37.1 26.225L41.9625 31.9375C42.1875 32.2 42.15 32.6 41.8875 32.8125C41.775 32.9125 41.625 32.9625 41.4875 32.9625H41.475Z" fill="#A79DA9"/>
<path d="M33.8125 36.425C33.1 36.425 32.4 36.125 31.9 35.55C31.0125 34.5 31.1375 32.9125 32.1875 32.025C33.2375 31.1375 34.825 31.2625 35.7125 32.3125C36.15 32.825 36.35 33.4625 36.3 34.1375C36.25 34.8 35.9375 35.4125 35.425 35.8375C34.95 36.2375 34.3875 36.4375 33.8125 36.4375V36.425ZM33.8125 32.675C33.525 32.675 33.2375 32.775 33 32.975C32.475 33.425 32.4125 34.2125 32.8625 34.7375C33.3125 35.2625 34.1 35.325 34.625 34.875C34.875 34.6625 35.0375 34.35 35.0625 34.025C35.0875 33.7 34.9875 33.375 34.775 33.1125C34.525 32.825 34.175 32.675 33.825 32.675H33.8125Z" fill="#A79DA9"/>
<path d="M26.95 40.3875C26.775 40.3875 26.6 40.3125 26.475 40.1625C26.25 39.9 26.2875 39.5 26.55 39.2875L31.975 34.675C32.2375 34.45 32.6375 34.4875 32.8625 34.75C33.0875 35.0125 33.05 35.4125 32.7875 35.625L27.3625 40.2375C27.25 40.3375 27.1 40.3875 26.9625 40.3875H26.95Z" fill="#A79DA9"/>
<path d="M28.75 20.625H21.25C20.9 20.625 20.625 20.35 20.625 20C20.625 19.65 20.9 19.375 21.25 19.375H28.75C29.1 19.375 29.375 19.65 29.375 20C29.375 20.35 29.1 20.625 28.75 20.625Z" fill="#80B4FB"/>
<path d="M31.25 24.375H18.75C18.4 24.375 18.125 24.1 18.125 23.75C18.125 23.4 18.4 23.125 18.75 23.125H31.25C31.6 23.125 31.875 23.4 31.875 23.75C31.875 24.1 31.6 24.375 31.25 24.375Z" fill="#80B4FB"/>
<path d="M26.25 28.125H18.75C18.4 28.125 18.125 27.85 18.125 27.5C18.125 27.15 18.4 26.875 18.75 26.875H26.25C26.6 26.875 26.875 27.15 26.875 27.5C26.875 27.85 26.6 28.125 26.25 28.125Z" fill="#80B4FB"/>
<path d="M25 31.875H18.75C18.4 31.875 18.125 31.6 18.125 31.25C18.125 30.9 18.4 30.625 18.75 30.625H25C25.35 30.625 25.625 30.9 25.625 31.25C25.625 31.6 25.35 31.875 25 31.875Z" fill="#80B4FB"/>
</g>
<defs>
<filter id="filter0_i_90_942" x="0" y="0" width="60" height="62.5" filterUnits="userSpaceOnUse" color-interpolation-filters="sRGB">
<feFlood flood-opacity="0" result="BackgroundImageFix"/>
<feBlend mode="normal" in="SourceGraphic" in2="BackgroundImageFix" result="shape"/>
<feColorMatrix in="SourceAlpha" type="matrix" values="0 0 0 0 0 0 0 0 0 0 0 0 0 0 0 0 0 0 127 0" result="hardAlpha"/>
<feOffset dy="2.5"/>
<feGaussianBlur stdDeviation="1.25"/>
<feComposite in2="hardAlpha" operator="arithmetic" k2="-1" k3="1"/>
<feColorMatrix type="matrix" values="0 0 0 0 0 0 0 0 0 0 0 0 0 0 0 0 0 0 0.08 0"/>
<feBlend mode="normal" in2="shape" result="effect1_innerShadow_90_942"/>
</filter>
</defs>
</svg>
